<?xml version="1.0" standalone="no"?>
<!DOCTYPE svg PUBLIC "-//W3C//DTD SVG 20010904//EN" "http://www.w3.org/TR/2001/REC-SVG-20010904/DTD/svg10.dtd">
<!-- Created using Krita: https://krita.org -->
<svg xmlns="http://www.w3.org/2000/svg" 
    xmlns:xlink="http://www.w3.org/1999/xlink"
    xmlns:krita="http://krita.org/namespaces/svg/krita"
    xmlns:sodipodi="http://sodipodi.sourceforge.net/DTD/sodipodi-0.dtd"
    width="136.08pt"
    height="84.96pt"
    viewBox="0 0 136.08 84.96">
<defs/>
<path id="shape0" transform="translate(-1.53272679696178, 24.0037711271841)" fill="#ffffff" fill-rule="evenodd" stroke-opacity="0" stroke="#000000" stroke-width="0" stroke-linecap="square" stroke-linejoin="bevel" d="M0 0L39.8808 0.678823L82.9861 57.8696L38.1838 57.3605C36.713 57.6999 23.9851 38.5797 0 0Z" sodipodi:nodetypes="ccccc"/><path id="shape1" transform="translate(44.1759135008601, -2.47030676044033)" fill="#ffffff" fill-rule="evenodd" stroke-opacity="0" stroke="#000000" stroke-width="0" stroke-linecap="square" stroke-linejoin="bevel" d="M0.111879 28.0014C-1.72533 24.4422 19.5359 9.33381 29.2479 0L71.7277 52.2693C36.0218 85.9642 42.3425 81.2552 41.3503 83.6649C42.9343 84.1174 29.1881 65.5629 0.111879 28.0014Z" sodipodi:nodetypes="ccccc"/><path id="shape2" transform="translate(30.3762326457665, 0.244983279316083)" fill="#ffffff" fill-rule="evenodd" stroke-opacity="0" stroke="#000000" stroke-width="0" stroke-linecap="square" stroke-linejoin="bevel" d="M13.7452 0.220017L35.8036 0L21.8401 11.76L18.4936 11.8794L8.14157 22.2314L0 22.0929L0.106353 0.169706L13.7458 0.169706L13.7452 0.220017M46.9502 0.119394L89.1978 0.220017L89.1978 0.169706L102.837 0.169706L102.837 62.14L102.878 62.14L102.878 74.38L102.837 74.38L102.837 74.5008L89.1978 74.5008L89.1978 74.38L64.3785 75.3705L64.389 75.3597L76.8723 63.1305L89.1978 62.14L89.2609 17.8191C87.1888 17.8191 85.0538 11.98 82.9818 11.98C73.6514 11.98 65.8381 11.8794 56.5077 11.8794L46.9502 0.119394" sodipodi:nodetypes="cccccccccccccccccccccccccccc"/>
</svg>
